<svg width="23" height="23" viewBox="0 0 23 23" fill="none" xmlns="http://www.w3.org/2000/svg">
<path d="M1 1H3.42735C4.12919 1 4.48012 1 4.74314 1.19135C5.00617 1.38271 5.11419 1.71659 5.33023 2.38436L6.17647 5" stroke="#0500FF" stroke-linecap="round"/>
<path d="M19.1181 18.3334H6.92512C6.32473 18.3334 6.02453 18.3334 5.81564 18.2305C5.52017 18.085 5.31528 17.8034 5.26782 17.4775C5.23426 17.2471 5.32666 16.9615 5.51148 16.3902V16.3902C5.71972 15.7466 5.82384 15.4248 6.00236 15.1739C6.25457 14.8194 6.61546 14.5569 7.03034 14.426C7.32401 14.3334 7.66226 14.3334 8.33876 14.3334H15.2358" stroke="#0500FF" stroke-linecap="round" stroke-linejoin="round"/>
<path d="M15.4676 14.3333H10.1386C8.84525 14.3333 8.19856 14.3333 7.69454 13.9971C7.19052 13.6609 6.94215 13.0638 6.44541 11.8696L5.31506 9.15219C4.53387 7.27417 4.14327 6.33515 4.58861 5.66758C5.03395 5 6.05096 5 8.08498 5H17.9053C20.175 5 21.3099 5 21.745 5.73885C22.1801 6.47769 21.6297 7.47015 20.5288 9.45506L18.9657 12.2734C18.4086 13.2779 18.13 13.7801 17.6603 14.0567C17.1905 14.3333 16.6162 14.3333 15.4676 14.3333Z" stroke="#0500FF" stroke-linecap="round"/>
<ellipse cx="18.4699" cy="21.6667" rx="1.29412" ry="1.33333" fill="#0500FF"/>
<ellipse cx="8.11834" cy="21.6667" rx="1.29412" ry="1.33333" fill="#0500FF"/>
</svg>
