<svg width="21" height="18" viewBox="0 0 21 18" fill="none" xmlns="http://www.w3.org/2000/svg">
<path fill-rule="evenodd" clip-rule="evenodd" d="M18.5113 2.62892C16.6258 0.248177 12.8412 0.647445 11.5163 3.36687C11.1083 4.20422 9.89166 4.20422 9.48371 3.36687C8.15885 0.647446 4.37418 0.24818 2.4887 2.62892L2.15349 3.05218C0.542055 5.08688 0.774724 7.98847 2.6907 9.75171L10.2244 16.6848C10.362 16.8115 10.437 16.8797 10.4951 16.9235C10.4968 16.9248 10.4984 16.926 10.5 16.9272C10.5016 16.926 10.5032 16.9248 10.5049 16.9235C10.563 16.8797 10.638 16.8115 10.7756 16.6848L18.3093 9.75171C20.2253 7.98847 20.4579 5.08688 18.8465 3.05217L18.5113 2.62892ZM10.5384 2.90963C12.2106 -0.52279 16.9876 -1.02674 19.3674 1.9782L19.7026 2.40146C21.6567 4.86877 21.3745 8.38728 19.0512 10.5254L11.5025 17.4724C11.3858 17.5798 11.2715 17.685 11.1661 17.7645C11.0489 17.8529 10.9006 17.9432 10.7087 17.9801C10.5709 18.0066 10.4291 18.0066 10.2913 17.9801C10.0994 17.9432 9.9511 17.8529 9.83389 17.7645C9.72848 17.685 9.61422 17.5798 9.49756 17.4724L1.94881 10.5254C-0.374533 8.38728 -0.656671 4.86877 1.29737 2.40147L1.63258 1.97821C4.01242 -1.02674 8.78939 -0.52279 10.4616 2.90964C10.4681 2.9229 10.4735 2.92624 10.476 2.92771C10.4806 2.93038 10.4888 2.93336 10.5 2.93336C10.5112 2.93336 10.5194 2.93038 10.524 2.92771C10.5265 2.92624 10.5319 2.92289 10.5384 2.90963Z" fill="#222222"/>
</svg>
