<svg width="19" height="19" viewBox="0 0 19 19" fill="none" xmlns="http://www.w3.org/2000/svg">
<path d="M1.5 17.1C1.1 17.1 0.75 16.9575 0.45 16.6725C0.15 16.3875 0 16.055 0 15.675V1.425C0 1.045 0.15 0.7125 0.45 0.4275C0.75 0.1425 1.1 0 1.5 0H16.5C16.9 0 17.25 0.1425 17.55 0.4275C17.85 0.7125 18 1.045 18 1.425V10.64C17.77 10.5165 17.53 10.412 17.28 10.3313C17.025 10.2505 16.765 10.1792 16.5 10.1175V1.425H1.5V15.675H9.5C9.515 15.9268 9.54 16.1737 9.575 16.4112C9.61 16.6488 9.665 16.8767 9.75 17.1H1.5ZM14.5 19V16.15H11.5V14.725H14.5V11.875H16V14.725H19V16.15H16V19H14.5ZM4.5 13.1575C4.7 13.1575 4.875 13.0863 5.025 12.9437C5.175 12.8012 5.25 12.635 5.25 12.445C5.25 12.255 5.175 12.0887 5.025 11.9462C4.875 11.8038 4.7 11.7325 4.5 11.7325C4.3 11.7325 4.125 11.8038 3.975 11.9462C3.825 12.0887 3.75 12.255 3.75 12.445C3.75 12.635 3.825 12.8012 3.975 12.9437C4.125 13.0863 4.3 13.1575 4.5 13.1575ZM4.5 9.2625C4.7 9.2625 4.875 9.19125 5.025 9.04875C5.175 8.90625 5.25 8.74 5.25 8.55C5.25 8.36 5.175 8.19375 5.025 8.05125C4.875 7.90875 4.7 7.8375 4.5 7.8375C4.3 7.8375 4.125 7.90875 3.975 8.05125C3.825 8.19375 3.75 8.36 3.75 8.55C3.75 8.74 3.825 8.90625 3.975 9.04875C4.125 9.19125 4.3 9.2625 4.5 9.2625ZM4.5 5.3675C4.7 5.3675 4.875 5.29625 5.025 5.15375C5.175 5.01125 5.25 4.845 5.25 4.655C5.25 4.465 5.175 4.29875 5.025 4.15625C4.875 4.01375 4.7 3.9425 4.5 3.9425C4.3 3.9425 4.125 4.01375 3.975 4.15625C3.825 4.29875 3.75 4.465 3.75 4.655C3.75 4.845 3.825 5.01125 3.975 5.15375C4.125 5.29625 4.3 5.3675 4.5 5.3675ZM7.8 9.2625H13.9V7.8375H7.8V9.2625ZM7.8 5.3675H13.9V3.9425H7.8V5.3675ZM7.8 13.1575H10.025C10.16 12.8868 10.315 12.6398 10.49 12.407C10.665 12.1743 10.855 11.951 11.055 11.7277H7.805V13.1528L7.8 13.1575Z" fill="black"/>
</svg>
