<svg width="98" height="86" viewBox="0 0 98 86" fill="none" xmlns="http://www.w3.org/2000/svg">
<g clip-path="url(#clip0_65_322)">
<path d="M28.4907 72.42C27.8807 72.68 26.7607 73.27 25.8507 74.47C25.3907 75.08 25.1107 75.68 24.9407 76.15C25.1707 76.38 25.5507 76.72 26.0907 77.06C27.4407 77.9 28.3407 77.78 29.3207 78.31C29.9307 78.64 30.7407 79.32 31.3507 80.87C31.3007 81.1 31.2007 81.43 31.0307 81.8C31.0307 81.8 30.5207 82.91 29.3507 83.85C28.2007 84.77 25.2207 85.64 21.3007 85.45C21.0907 85.41 20.4107 85.26 19.8907 84.65C19.1907 83.84 19.3107 82.86 19.3307 82.7C20.7107 82.18 21.8507 82 22.6407 81.93C24.2707 81.79 25.5507 82.02 27.3607 81.37C27.7507 81.23 28.0507 81.09 28.2407 81C28.0107 80.8 27.6307 80.48 27.1207 80.17C25.7407 79.34 24.9707 79.5 24.1607 78.84C23.2507 78.09 23.0707 76.92 23.0407 76.68C22.7907 74.76 24.2707 72.69 26.1907 72.23C27.2007 71.99 28.0807 72.25 28.5107 72.42H28.4907Z" fill="#1D1D1B"/>
<path d="M14.5492 56.55C13.8092 56.36 13.3892 57.43 11.5592 58.75C9.39916 60.32 7.05916 60.97 6.43916 61.13C4.41916 61.67 3.74916 61.39 2.80916 62.2C1.70916 63.14 1.47916 64.52 1.38916 65.04C1.31916 65.43 0.919161 67.78 2.38916 69.38C4.44916 71.63 8.32916 70.31 8.74916 70.16C10.4992 69.54 11.4592 68.4 12.6592 67C13.8392 65.63 15.9592 63.14 15.8592 59.89C15.8192 58.75 15.4892 56.79 14.5392 56.55H14.5492Z" fill="white"/>
<path d="M15.3296 37.96C13.3396 39 11.9896 39.96 11.0996 40.66C10.6496 41.02 9.65955 41.81 8.25955 42.72C6.48955 43.86 5.94955 43.95 4.80955 44.71C3.85955 45.35 2.57955 46.39 1.32955 48.16C0.849552 48.76 0.739552 49.49 1.04955 50.01C1.20955 50.28 1.44955 50.43 1.61955 50.51C2.58955 51.36 3.78955 52.28 5.24955 53.14C6.05955 53.62 6.82955 54.02 7.55955 54.35C7.31955 54.44 6.51955 54.75 6.13955 55.56C5.69955 56.47 6.08955 57.39 6.31955 57.94C6.77955 59.04 7.59955 59.66 8.02955 59.93C7.62955 59.98 7.04955 60.06 6.35955 60.18C4.94955 60.43 4.17955 60.56 3.51955 60.82C3.09955 60.98 1.31955 61.75 0.459552 63.63C-0.650448 66.08 0.689552 68.47 0.849552 68.75C1.78955 70.36 3.23955 71.03 3.68955 71.24C4.41955 71.57 4.98955 71.65 6.06955 71.81C7.60955 72.04 8.69955 72.19 9.90955 71.77C10.9496 71.41 11.5896 70.79 12.1496 70.24C13.4696 68.94 13.9896 67.54 14.5996 65.83C14.9996 64.72 15.4796 63.12 15.7396 61.1C15.2596 61.42 14.5696 61.95 13.9596 62.77C13.7096 63.11 13.6296 63.28 12.9296 64.69C12.8196 64.9 12.1296 66.29 11.2196 67.82C10.9096 68.34 10.6796 68.71 10.2196 69.03C9.72955 69.37 9.25955 69.47 8.75955 69.56C7.58955 69.78 6.63955 69.63 6.05955 69.52C5.09955 69.35 4.52955 69.25 3.88955 68.81C2.97955 68.18 2.60955 67.32 2.53955 67.14C2.42955 66.88 1.89955 65.55 2.53955 64.37C3.06955 63.39 4.12955 63.05 5.09955 62.73C6.18955 62.38 6.41955 62.59 7.40955 62.27C8.11955 62.04 8.75955 61.58 9.99955 60.67C11.5796 59.52 11.9996 59.02 13.4096 58.15C14.2096 57.65 14.2596 57.76 14.5096 57.51C15.7596 56.28 15.8196 53.49 14.4396 52.32C13.9596 51.92 13.3996 51.79 12.9496 51.68C12.4596 51.57 11.5596 51.36 10.5996 51.79C9.98955 52.07 9.58955 52.5 9.35955 52.82C7.26955 51.47 5.18955 50.12 3.09955 48.77C6.74955 46.13 10.3996 43.49 14.0496 40.84C14.4796 39.88 14.8996 38.92 15.3296 37.96Z" fill="#1D1D1B"/>
<path d="M62.9301 34.18C63.3301 34 64.0801 34.82 65.3301 36.2C66.3701 37.35 66.3701 37.51 66.9801 38.04C68.0401 38.94 68.3301 38.73 69.1701 39.45C70.0801 40.24 70.0801 40.79 71.2001 42.54C71.5601 43.11 72.1401 43.96 72.9601 44.94C74.2301 44.3 75.5001 43.66 76.7701 43.02C76.9801 42.91 77.2501 42.78 77.4601 42.67C77.3201 42.37 77.0001 41.56 77.2501 40.62C77.5301 39.55 78.3701 38.98 78.7401 38.73C79.6201 38.13 80.6701 37.91 81.6201 37.72C82.5301 37.53 82.8201 37.57 83.0901 37.27C83.4801 36.81 83.1401 36.34 83.2201 35.06C83.3001 33.75 83.7001 33.71 83.7301 32.47C83.7601 31.29 83.4101 31.15 83.6001 30.44C83.9601 29.1 85.5301 28.52 85.6001 28.49C87.4201 27.85 89.0401 29.13 89.1501 29.21C90.0101 29.91 90.3001 30.82 90.7501 32.22C91.0601 33.2 91.2001 34.05 91.2601 34.62C91.6101 34.6 92.1201 34.58 92.7301 34.57C94.0001 34.55 94.6501 34.55 95.0201 34.7C96.1401 35.17 96.6301 36.37 96.7801 36.73C96.9401 37.12 97.0101 37.47 97.1001 38.2C97.3501 40.33 97.5001 41.63 97.0501 43.24C96.9001 43.78 96.6901 44.49 96.1401 45.27C95.7701 45.8 95.2201 46.64 94.2501 47C93.6001 47.24 93.3101 47.07 92.2201 47.05C90.7601 47.03 89.6301 47.33 88.4601 47.64C87.2001 47.97 86.6901 48.26 85.3901 48.39C84.4201 48.49 83.8701 48.41 83.6301 48.07C83.3301 47.64 83.6901 46.99 83.5001 46.9C83.3301 46.81 82.9701 47.31 82.1901 48.07C81.5201 48.73 81.1801 49.06 80.8301 49.19C80.1101 49.45 79.1201 49.28 78.5401 48.68C78.1401 48.27 78.0601 47.72 77.9301 46.65C77.8101 45.69 77.8201 44.89 77.8501 44.33C76.9001 44.68 76.2001 45.09 75.7201 45.4C74.7601 46.02 74.2201 46.59 73.2701 46.65C73.0801 46.66 72.7101 46.68 72.2801 46.52C71.7601 46.32 71.4201 45.93 70.7301 44.73C69.8401 43.18 69.6401 42.45 68.9401 41.82C68.8301 41.72 68.5001 41.54 67.8501 41.15C66.7901 40.52 66.6401 40.48 66.3601 40.3C65.3301 39.62 65.6501 39.01 64.4901 37.58C63.5601 36.44 62.8901 36.26 62.7301 35.31C62.6701 34.93 62.6501 34.3 62.9401 34.17L62.9301 34.18Z" fill="black"/>
<path d="M85.0596 30.4301C84.8996 30.7501 85.0596 30.9001 85.1396 31.8201C85.2196 32.7101 85.1396 33.4101 85.0896 33.8201C84.9696 34.8901 84.7996 34.8001 84.7696 35.6101C84.7396 36.3501 84.8796 36.6201 84.7196 37.2601C84.6696 37.4701 84.5696 37.8501 84.2896 38.2501C83.7896 38.9801 83.0596 39.2501 82.7996 39.3401C82.2496 39.5401 82.2696 39.3601 81.4696 39.5801C81.3096 39.6201 80.6496 39.8101 79.8696 40.2501C79.3996 40.5101 79.1596 40.6501 79.0396 40.8101C78.6196 41.3801 79.1396 41.9301 79.2796 43.4501C79.2996 43.6101 79.5196 46.0801 79.1996 47.0201C79.1796 47.0801 79.0996 47.3001 79.1996 47.4201C79.3296 47.5701 79.7096 47.4501 79.8096 47.4201C80.3096 47.2601 80.5996 46.9201 81.2196 46.2501C81.9396 45.4601 81.9096 45.5301 81.9396 45.4801C82.5396 44.3701 81.5196 43.2401 82.1496 42.4701C82.2996 42.2901 82.5596 42.1001 82.7896 42.1501C83.1796 42.2401 83.3196 42.9701 83.3996 43.4001C83.4796 43.8401 83.5596 44.5701 83.5596 45.4301C83.5596 45.7101 83.5596 45.9101 83.6896 46.0701C83.8396 46.2501 84.1096 46.3201 84.8096 46.2601C85.6596 46.1901 85.8896 46.0301 86.8096 45.8601C87.7696 45.6801 88.0696 45.7401 88.2196 45.4901C88.3496 45.2801 88.2696 45.0301 87.9496 44.1601C87.3896 42.6001 87.3896 42.6501 87.3896 42.5901C87.3196 41.6601 88.0596 41.5901 88.6696 39.8401C88.8596 39.2901 88.9396 38.8601 89.2796 38.7501C89.5096 38.6701 89.5996 38.8201 90.2896 38.9901C90.9896 39.1701 91.1996 39.1001 91.4596 39.3401C91.5296 39.4001 91.8096 39.6901 91.7496 39.9801C91.6896 40.2601 91.3696 40.3101 90.6796 40.7301C90.1796 41.0301 89.9296 41.1801 89.7996 41.4001C89.4896 41.8901 89.6396 42.5001 89.7696 43.0301C89.8496 43.3401 90.0096 43.9601 90.5396 44.5201C90.7296 44.7301 91.1396 45.1501 91.8196 45.3201C91.9796 45.3601 92.3196 45.4301 92.7496 45.3701C93.7896 45.2201 94.4096 44.4301 94.5696 44.2301C94.9996 43.6701 95.1296 43.1301 95.2596 42.5201C95.4096 41.8601 95.8196 39.8201 94.7796 37.6901C94.5296 37.1801 94.4296 36.7101 94.0096 36.4601C93.8896 36.3901 93.7596 36.3401 92.6796 36.2501C91.6396 36.1601 91.5496 36.1801 91.4496 36.2501C91.0696 36.5201 90.9096 37.2601 90.9996 37.8201C91.0296 38.0301 91.0996 38.1901 90.9996 38.3001C90.8396 38.4801 90.3996 38.3401 90.1996 38.2701C89.9496 38.1901 89.6396 38.0901 89.4496 37.8401C89.1796 37.4801 89.2896 37.0101 89.3696 36.5301C89.4996 35.7101 89.4696 35.1101 89.4196 34.1001C89.3596 32.9001 89.0696 32.0501 88.8896 31.5901C88.4496 30.5001 87.9996 30.1801 87.8196 30.0701C87.7296 30.0101 87.3596 29.7901 86.8296 29.7501C86.2396 29.7001 85.3196 29.8601 85.0196 30.4401L85.0596 30.4301Z" fill="white"/>
<path d="M17.9603 3.91002C16.9403 11 16.1303 18.55 15.6103 26.52C14.5503 42.98 14.9703 58.02 16.1403 71.31C24.9503 71.59 35.0903 71.29 46.2103 69.82C52.5403 68.98 58.4203 67.87 63.8103 66.62C64.2403 65.75 64.7603 64.44 64.9803 62.78C65.1703 61.41 65.1003 60.23 64.9803 59.37C63.9903 52.97 63.1503 46.21 62.5303 39.11C61.3703 25.76 61.1803 13.35 61.5703 2.11002C60.8103 1.86002 59.9203 1.63002 58.9003 1.47002C57.2703 1.22002 55.8503 1.25002 54.7403 1.36002C52.2003 1.62002 49.7303 1.89002 49.7303 1.89002C49.7303 1.89002 49.1503 8.98002 48.2403 20.02C48.1803 20.24 48.0503 20.63 47.7103 20.98C47.0103 21.69 46.0503 21.63 45.9003 21.62C40.3503 21.76 34.8103 21.9 29.2603 22.05C29.1903 22.03 28.8003 21.89 28.5803 21.48C28.3903 21.1 28.4703 20.75 28.4903 20.66C28.7903 15.1 29.0903 9.55002 29.4003 3.99002C25.5803 3.97002 21.7703 3.94002 17.9503 3.92002L17.9603 3.91002Z" fill="white"/>
<path d="M22.0205 72.6601C20.0505 72.6601 18.0805 72.6301 16.1105 72.5701L14.9905 72.5301L14.8905 71.4101C13.5705 56.4701 13.3905 41.3401 14.3505 26.4301C14.8405 18.8701 15.6305 11.2301 16.7105 3.72006L16.8705 2.63006L30.7505 2.72006L29.7705 20.7601L45.9405 20.3501H46.0105C46.0605 20.3501 46.5305 20.3901 46.8105 20.0901C46.9105 19.9901 46.9605 19.8801 47.0005 19.7801L48.1905 5.27006C48.3838 2.93006 48.4805 1.75006 48.4805 1.73006L49.0305 1.27006L50.7005 0.510061C52.4305 0.320061 53.7605 0.180061 54.6305 0.100061C56.1205 -0.0499392 57.6305 -0.00993924 59.1105 0.210061C60.0805 0.360061 61.0505 0.590061 61.9805 0.900061L62.8805 1.20006L62.8505 2.15006C62.4205 14.4101 62.7405 26.8101 63.8105 39.0001C64.4005 45.7201 65.2205 52.5101 66.2505 59.1801C66.4205 60.4501 66.4205 61.7101 66.2505 62.9601C66.0505 64.4301 65.6105 65.8501 64.9605 67.1801L64.7005 67.7201L64.1105 67.8601C58.2805 69.2101 52.3205 70.3001 46.3905 71.0801C38.3505 72.1401 30.1705 72.6801 22.0205 72.6801V72.6601ZM17.3205 70.0701C26.9205 70.3201 36.5805 69.8101 46.0605 68.5501C51.7005 67.8001 57.3705 66.7801 62.9305 65.5101C63.3305 64.5801 63.6005 63.6001 63.7405 62.5901C63.8805 61.5701 63.8805 60.5401 63.7405 59.5201C62.7005 52.8201 61.8705 45.9701 61.2805 39.2001C60.2405 27.2301 59.9005 15.0601 60.2805 3.02006C59.7705 2.88006 59.2405 2.78006 58.7205 2.70006C57.4505 2.51006 56.1605 2.47006 54.8805 2.60006C54.0205 2.69006 52.6705 2.83006 50.9205 3.02006L49.5005 20.2201L49.4705 20.3201C49.3205 20.9001 49.0205 21.4301 48.6205 21.8501C47.6305 22.8601 46.3505 22.9001 45.8805 22.8701L29.0905 23.3001L28.8905 23.2401C28.6005 23.1501 27.8905 22.8501 27.4705 22.0401C27.1505 21.4201 27.1805 20.8301 27.2505 20.4701L28.0805 5.23006L19.0705 5.17006C18.0805 12.2601 17.3505 19.4601 16.8905 26.5901C15.9605 41.0001 16.1005 55.6201 17.3205 70.0601V70.0701Z" fill="black"/>
<path d="M49.0493 70.45C49.9593 70.97 51.2393 71.85 52.3593 73.28C53.1193 74.26 53.2593 74.66 53.8493 75.84C55.2993 78.73 58.3493 81.57 59.6093 81.01C59.8293 80.91 60.0893 80.67 60.2493 80C60.3893 79.93 60.9893 79.64 61.7393 79.84C62.5293 80.05 62.9093 80.64 62.9893 80.77C64.9693 79.2 66.3593 77.71 67.2793 76.61C68.3393 75.34 68.9493 74.38 68.8293 73.28C68.8093 73.1 68.6993 72.24 68.0793 71.84C67.9193 71.74 67.2193 71.37 65.3593 72.37C64.2893 72.94 62.4593 74.18 60.7693 76.85C60.7293 76.91 60.6293 77.08 60.4393 77.14C60.0393 77.26 59.5393 76.8 59.1693 76.38C57.4593 75.14 56.2693 74 55.4693 73.16C55.4093 73.1 54.5793 72.22 53.3493 71.19C52.0993 70.14 51.5993 69.89 51.0393 69.84C50.1193 69.76 49.3793 70.2 49.0293 70.44L49.0493 70.45Z" fill="#1D1D1B"/>
<path d="M30.1002 45.98C29.3402 45.98 28.6802 45.79 28.1102 45.41C27.4502 44.97 27.0102 44.33 26.6102 43.19C26.0402 41.59 25.9302 40.13 26.0902 36.37C26.2202 33.35 26.3502 32.63 26.9202 31.87C27.0702 31.67 28.4902 29.87 30.6502 29.94C31.0202 29.95 31.4002 30.02 31.7602 30.13L31.8402 30.16C32.5702 30.51 33.2002 30.98 33.7102 31.55C34.0502 31.93 35.0902 33.09 35.2702 37.86C35.3802 40.79 35.4502 42.57 34.3202 43.98C33.3402 45.19 32.0602 45.63 31.5502 45.77C31.0302 45.91 30.5402 45.97 30.0902 45.97L30.1002 45.98ZM30.5502 31.35C29.1102 31.35 28.0902 32.67 28.0502 32.72C27.7502 33.12 27.6202 33.55 27.5002 36.43C27.3402 40.32 27.5002 41.47 27.9402 42.72C28.2802 43.68 28.5702 44.02 28.8902 44.24C29.7302 44.8 30.8402 44.51 31.2002 44.41C31.4902 44.33 32.5002 44.02 33.2302 43.1C34.0002 42.14 33.9903 40.81 33.8802 37.92C33.8003 35.98 33.5302 33.46 32.6702 32.5C32.2902 32.08 31.8202 31.73 31.2802 31.46C31.0602 31.39 30.8402 31.35 30.6202 31.35C30.6002 31.35 30.5802 31.35 30.5502 31.35Z" fill="#1D1D1B"/>
<path d="M30.0496 33.74C30.2696 33.8 30.5896 33.91 30.9096 34.17C31.4196 34.58 31.6096 35.12 31.7496 35.56C31.7996 35.71 31.9296 36.14 31.9896 37.39C32.0296 38.29 32.0496 38.78 31.9696 39.46C31.8596 40.33 31.7696 40.98 31.2896 41.57C31.1096 41.8 30.7096 42.28 30.1596 42.26C29.7296 42.25 29.4196 41.94 29.3096 41.83C28.9396 41.47 28.8296 41.02 28.7796 40.8C28.4896 39.48 28.7096 38.42 28.7296 36.6C28.7496 35.42 28.6696 34.85 29.1196 34.33C29.4096 33.99 29.7696 33.83 30.0396 33.74H30.0496Z" fill="#1D1D1B"/>
<path d="M48.11 45.07C47.35 45.07 46.69 44.88 46.12 44.5C45.46 44.06 45.02 43.42 44.62 42.28C44.05 40.68 43.94 39.22 44.1 35.46C44.23 32.44 44.36 31.72 44.93 30.96C45.08 30.76 46.45 29.03 48.55 29.03C48.59 29.03 48.62 29.03 48.66 29.03C49.03 29.04 49.4 29.11 49.77 29.22L49.86 29.25C50.59 29.6 51.22 30.07 51.73 30.64C52.07 31.02 53.11 32.18 53.29 36.95C53.4 39.88 53.47 41.66 52.34 43.07C51.36 44.28 50.08 44.72 49.57 44.86C49.05 45 48.56 45.06 48.11 45.06V45.07ZM48.56 30.44C47.11 30.44 46.1 31.76 46.06 31.81C45.75 32.21 45.63 32.64 45.51 35.52C45.35 39.41 45.51 40.56 45.95 41.81C46.29 42.77 46.58 43.11 46.9 43.33C47.74 43.89 48.85 43.6 49.21 43.5C49.5 43.42 50.51 43.11 51.24 42.19C52.01 41.23 52 39.9 51.89 37.01C51.81 35.07 51.54 32.55 50.68 31.59C50.3 31.17 49.83 30.82 49.29 30.55C49.07 30.48 48.85 30.44 48.63 30.44C48.61 30.44 48.59 30.44 48.56 30.44Z" fill="#1D1D1B"/>
<path d="M48.0593 32.83C48.2793 32.89 48.5993 33 48.9193 33.26C49.4293 33.67 49.6193 34.21 49.7593 34.65C49.8093 34.8 49.9393 35.23 49.9993 36.48C50.0393 37.38 50.0593 37.87 49.9793 38.55C49.8693 39.42 49.7793 40.07 49.2993 40.66C49.1193 40.89 48.7193 41.37 48.1693 41.35C47.7393 41.34 47.4293 41.03 47.3193 40.92C46.9493 40.56 46.8393 40.11 46.7893 39.89C46.4993 38.57 46.7193 37.51 46.7393 35.69C46.7593 34.51 46.6793 33.94 47.1293 33.42C47.4193 33.08 47.7793 32.92 48.0493 32.83H48.0593Z" fill="#1D1D1B"/>
<path d="M37.0892 58.4399C33.2192 58.4399 29.3392 57.7299 25.6992 56.3599L26.2992 54.7799C30.7792 56.4699 35.6292 57.0999 40.3392 56.5799C44.1692 56.1599 47.8392 55.0199 51.2692 53.1899L52.0692 54.6799C48.4592 56.6099 44.5692 57.8099 40.5292 58.2599C39.3892 58.3799 38.2492 58.4499 37.0992 58.4499L37.0892 58.4399Z" fill="#1D1D1B"/>
<path d="M53.9891 56.6099C53.3691 56.6099 51.9091 56.4799 50.9791 55.3399C49.6891 53.7599 50.0491 51.2299 51.8091 49.5699L52.9691 50.7999C51.7791 51.9299 51.6491 53.5099 52.2791 54.2799C52.8291 54.9499 53.8691 54.9399 54.0791 54.9299L54.1491 56.6199C54.1491 56.6199 54.0491 56.6199 53.9891 56.6199V56.6099Z" fill="#1D1D1B"/>
</g>
<defs>
<clipPath id="clip0_65_322">
<rect width="97.33" height="85.49" fill="white"/>
</clipPath>
</defs>
</svg>
