<svg width="24" height="23" viewBox="0 0 24 23" fill="none" xmlns="http://www.w3.org/2000/svg">
<path d="M23.6776 8.22957C23.3027 5.87925 21.1475 4.11489 18.7054 4.20932C18.0861 4.2339 17.4733 4.40852 16.8437 4.51588C16.09 2.34407 14.5671 0.997517 12.1754 0.967766C9.71254 0.938015 8.13918 2.28974 7.32858 4.60126C6.50376 4.23648 5.64403 4.11877 4.76233 4.22225C2.49084 4.48872 0.648568 6.38372 0.470159 8.61633C0.278821 11.0145 1.71515 13.1449 3.98534 13.7995C4.24261 13.8732 4.30467 13.9767 4.30467 14.2289C4.29433 16.327 4.30079 18.4251 4.29691 20.5244C4.29691 20.9306 4.38224 21.2967 4.66795 21.5981C4.99891 21.9473 5.41908 22.0327 5.87803 22.0327C10.0202 22.0288 14.1624 22.0301 18.3046 22.0301C19.3919 22.0301 19.909 21.5101 19.909 20.4184C19.909 18.363 19.9129 16.305 19.9051 14.2496C19.9051 13.9935 19.9594 13.8745 20.2322 13.7943C22.642 13.0945 24.0822 10.7571 23.6789 8.22957H23.6776ZM19.3053 20.8297C19.2781 21.1492 19.0467 21.3549 18.7287 21.4234C18.5865 21.4545 18.4365 21.4571 18.2891 21.4571C14.1676 21.4597 10.0474 21.4571 5.92587 21.4571C5.12044 21.4571 4.86704 21.2035 4.86446 20.4003V19.4728H19.3143C19.3143 19.9307 19.3441 20.3822 19.3053 20.8284V20.8297ZM19.9788 13.2795C18.8593 13.5847 17.7888 13.4399 16.7675 12.8979C16.7028 12.8642 16.6369 12.7931 16.5748 12.797C16.4352 12.806 16.2982 12.8487 16.1598 12.8798C16.2051 13.013 16.209 13.2109 16.3021 13.2717C16.8812 13.652 17.5264 13.8784 18.2167 13.9547C18.5697 13.9935 18.9278 13.9999 19.3247 14.0232V18.8713H18.4404V18.8739H5.75133V18.8636H4.88127V14.0439C5.37125 13.9948 5.85217 13.9676 6.32535 13.8952C6.95754 13.7969 7.53026 13.533 8.06549 13.185C8.25165 13.0647 8.44557 12.9276 8.27492 12.6844C8.11332 12.4542 7.92586 12.5965 7.75392 12.7077C5.2536 14.3233 1.93363 13.101 1.1838 10.2552C0.727431 8.52449 1.17216 6.99555 2.53092 5.82492C3.92199 4.62713 5.51346 4.45638 7.198 5.17299C7.69315 5.38383 7.76296 5.36184 7.88708 4.84702C8.35508 2.90157 10.0849 1.53045 12.09 1.51622C14.0758 1.5007 15.8185 2.85501 16.3008 4.78752C16.3176 4.85867 16.3137 4.93886 16.346 5.00225C16.4119 5.13548 16.4701 5.30752 16.5826 5.3696C16.655 5.40841 16.8153 5.26612 16.9433 5.22473C17.3997 5.07598 17.8496 4.86384 18.3189 4.80304C20.5722 4.512 22.6821 6.04223 23.1036 8.23086C23.5406 10.5023 22.2012 12.6741 19.9801 13.282L19.9788 13.2795Z" fill="black" stroke="black" stroke-width="0.5" stroke-miterlimit="10"/>
</svg>
