<svg width="34" height="29" viewBox="0 0 34 29" fill="none" xmlns="http://www.w3.org/2000/svg">
<path d="M5.39029 5.98412V18.4712C5.39029 20.0103 5.39029 21.5494 5.39029 23.0885C5.39029 23.3373 5.32963 23.5403 5.22471 23.6436C5.11814 23.7527 4.97387 23.7547 4.87222 23.7374C4.66729 23.7049 4.5345 23.5537 4.50827 23.3259C4.49023 23.1842 4.49023 23.033 4.49023 22.8645C4.49023 17.2862 4.49023 11.706 4.49023 6.12769C4.49023 5.93052 4.49023 5.72569 4.53122 5.56297C4.57385 5.38111 4.74599 5.24902 4.93616 5.24902C4.94764 5.24902 4.95912 5.25094 4.97715 5.25285C5.19192 5.27391 5.35422 5.45003 5.38209 5.69314C5.39193 5.78312 5.39193 5.88266 5.39029 5.98412Z" fill="white"/>
<path d="M29.341 6.06454V14.7364C29.341 17.4604 29.341 20.1826 29.341 22.9047C29.341 23.1057 29.3377 23.2991 29.2934 23.4522C29.2377 23.6513 29.0508 23.77 28.8377 23.7413C28.6278 23.7145 28.4803 23.5498 28.4508 23.3106C28.4393 23.2244 28.4409 23.1306 28.4426 23.0138V12.1999C28.4426 10.1056 28.4426 8.01139 28.4426 5.91905C28.4426 5.6587 28.5032 5.45579 28.6131 5.34858C28.677 5.28541 28.7606 5.25287 28.8623 5.25287C28.9016 5.25287 28.9393 5.2567 28.9787 5.26627C29.1836 5.30838 29.2869 5.43281 29.3262 5.68167C29.3426 5.7927 29.3426 5.91905 29.3426 6.06454H29.341Z" fill="white"/>
<path d="M17.364 6.0473V18.4195C17.364 19.9624 17.364 21.5073 17.3624 23.0521C17.3624 23.6149 17.1624 23.7164 16.9673 23.7432C16.7099 23.7796 16.505 23.592 16.4755 23.2914C16.464 23.1804 16.464 23.0598 16.4656 22.9315V22.8626C16.4656 17.2843 16.4656 11.7041 16.4656 6.12388V6.05305C16.4656 5.91139 16.4656 5.78504 16.4804 5.66636C16.5099 5.42707 16.6968 5.24712 16.9148 5.24521C17.1312 5.24521 17.3181 5.42515 17.3493 5.66253C17.364 5.7793 17.364 5.90947 17.364 6.0473Z" fill="white"/>
<path d="M14.3885 6.04346V6.56798C14.3885 10.835 14.3885 15.1058 14.3885 19.3747C14.3885 19.5719 14.3705 19.7518 14.3377 19.9126C14.2967 20.1079 14.118 20.263 13.9295 20.2668H13.8984C13.7262 20.2534 13.5541 20.1022 13.5131 19.926C13.4787 19.7786 13.4606 19.614 13.4606 19.4398C13.459 17.6786 13.459 15.9175 13.459 14.1582V10.8828C13.459 9.25376 13.459 7.62468 13.4606 5.99369C13.4606 5.70846 13.5246 5.47683 13.6393 5.35622C13.7065 5.28348 13.7918 5.24902 13.9 5.24902C13.9229 5.24902 13.9443 5.25094 13.9656 5.25285C14.118 5.272 14.3263 5.34665 14.382 5.78503C14.3918 5.8616 14.3902 5.94966 14.3902 6.04346H14.3885Z" fill="white"/>
<path d="M20.3729 6.12963V7.73382C20.3746 11.616 20.3746 15.4963 20.3729 19.3767C20.3729 19.5834 20.3549 19.7633 20.3221 19.9107C20.2795 20.1117 20.1041 20.2649 19.9155 20.2668H19.8893C19.7024 20.2553 19.5335 20.1003 19.4925 19.8954C19.4614 19.7461 19.445 19.5777 19.445 19.3958C19.4434 17.648 19.4434 15.9003 19.4434 14.1506V6.14685C19.4434 5.76399 19.5057 5.49025 19.6221 5.35433C19.6893 5.27584 19.7794 5.23947 19.9139 5.23947C20.0516 5.2433 20.3729 5.24904 20.3729 6.12963Z" fill="white"/>
<path d="M8.40222 6.02816V7.04466C8.40222 11.1566 8.40222 15.2685 8.40058 19.3786C8.40058 19.5547 8.38419 19.7251 8.35468 19.882C8.31041 20.1041 8.13663 20.2668 7.93498 20.2687C7.73825 20.2687 7.5661 20.1117 7.51856 19.8897C7.48905 19.7499 7.47266 19.5968 7.47266 19.4341C7.47266 17.6059 7.47266 15.7777 7.47266 13.9496V10.8254C7.47266 9.21358 7.47266 7.60173 7.47266 5.98988C7.47266 5.6989 7.53823 5.46727 7.65136 5.35241C7.71857 5.28541 7.80218 5.25287 7.90711 5.25287C7.93826 5.25287 7.97105 5.25478 8.0022 5.26053C8.16614 5.28733 8.33992 5.37156 8.39402 5.7927C8.40386 5.8597 8.40386 5.94202 8.40222 6.02816Z" fill="white"/>
<path d="M26.3598 9.02213V19.5068C26.3565 19.792 26.2942 20.2687 25.8925 20.2687C25.4892 20.2649 25.4302 19.7863 25.4302 19.5011C25.4269 15.0063 25.4269 10.5115 25.4302 6.01667C25.4302 5.72186 25.4909 5.49023 25.6007 5.36389C25.6745 5.28349 25.7679 5.24329 25.886 5.24329H25.9056C26.2057 5.25477 26.3581 5.50555 26.3581 5.98604C26.3581 6.99871 26.3581 8.01138 26.3581 9.02213H26.3598Z" fill="white"/>
<path d="M11.3714 19.5202C11.3714 19.725 11.332 19.9261 11.2697 20.0543C11.1812 20.2362 11.0369 20.3013 10.8435 20.2496C10.6304 20.1921 10.5189 20.0562 10.491 19.8208C10.4746 19.6925 10.4746 19.5528 10.4746 19.4054V6.11239C10.4746 5.95925 10.4746 5.81376 10.491 5.67784C10.5205 5.43281 10.6992 5.25095 10.9287 5.24521C11.1484 5.24521 11.3353 5.43281 11.3665 5.68167C11.3779 5.78696 11.3779 5.90373 11.3779 6.02242V14.2942C11.3796 15.9634 11.3796 17.7533 11.3714 19.5202Z" fill="white"/>
<path d="M23.3545 6.41484V14.1831C23.3545 15.9366 23.3545 17.6901 23.3529 19.4494V19.4704C23.3512 19.6332 23.3496 19.8016 23.3201 19.9318C23.2742 20.1232 23.0578 20.2821 22.8741 20.2649C22.6774 20.2457 22.4971 20.0639 22.4643 19.8495C22.4512 19.7595 22.4512 19.6561 22.4512 19.5451V5.98412C22.4512 5.38112 22.6725 5.2988 22.7446 5.272C22.7955 5.25286 22.8479 5.24329 22.9004 5.24329C22.9905 5.24329 23.0758 5.272 23.1463 5.32943C23.2611 5.4194 23.3299 5.56489 23.3414 5.74101C23.3561 5.95924 23.3561 6.19087 23.3545 6.41484Z" fill="white"/>
<path d="M5.38516 0.534093C5.38024 0.980127 5.02612 1.04713 4.81628 1.04904C4.19165 1.05096 3.56702 1.05096 2.93583 1.05096H0.899645L0.901284 2.95952C0.901284 3.84968 0.901284 4.73792 0.898005 5.62807C0.898005 5.82716 0.850461 6.28851 0.458634 6.29234C0.332397 6.29042 0.232391 6.24831 0.160256 6.16599C0.0586101 6.04731 0.00122958 5.84822 0.00122958 5.60701C-0.000409861 3.69079 -0.000409861 2.12106 0.00122958 0.66618C0.00286903 0.193345 0.155337 0.00765724 0.543885 0.00574293C1.23409 0 1.93741 0 2.66205 0C3.38668 0 4.08836 0 4.84251 0.00574293C5.03268 0.00574293 5.18187 0.0670008 5.27696 0.181859C5.35237 0.269918 5.38844 0.388605 5.38516 0.534093Z" fill="white"/>
<path d="M33.831 0.740848V5.6836C33.831 5.97074 33.7441 6.14303 33.5506 6.24258C33.4129 6.3134 33.2129 6.25215 33.108 6.15452C33.0129 6.06837 32.9506 5.83483 32.9441 5.54577C32.9244 4.67093 32.926 3.77311 32.9309 2.85233V1.04905H29.0848C28.9897 1.05097 28.9061 1.04905 28.829 1.03757C28.6044 0.995451 28.4405 0.769562 28.4454 0.513045C28.452 0.250784 28.6192 0.0459531 28.8553 0.0153242C28.9323 0.00383832 29.0159 0.00192401 29.0864 0.00192401H29.9078C30.9997 9.70376e-06 32.0932 9.70376e-06 33.1867 0.00192401C33.6916 0.00383832 33.831 0.162726 33.831 0.740848Z" fill="white"/>
<path d="M5.38703 28.4715V28.483C5.38211 28.7491 5.21817 28.9501 4.98045 28.9846C4.90503 28.9961 4.82142 28.998 4.74929 28.998H3.17542C2.33275 28.998 1.49171 28.998 0.649037 28.9961C0.122776 28.9961 0.00145728 28.8506 0.00145728 28.2246V27.1162C0.00145728 25.8643 -0.0018216 24.6123 0.00145728 23.3603C0.00145728 23.1038 0.0883478 22.8856 0.22934 22.7784C0.289999 22.7324 0.358856 22.7095 0.432631 22.7095C0.49493 22.7095 0.560508 22.7248 0.624446 22.7592C0.770356 22.832 0.903151 22.9622 0.901512 23.4005C0.898233 24.2984 0.898233 25.1962 0.899872 26.0959V27.9509H4.74109C4.83618 27.9509 4.92471 27.9509 5.00176 27.9643C5.22636 28.0045 5.38703 28.2169 5.38703 28.4715Z" fill="white"/>
<path d="M33.8342 25.8853C33.8342 26.7372 33.8309 27.5776 33.8276 28.3988C33.8276 28.8142 33.6686 28.9922 33.2981 28.9922C31.8701 29.0018 30.4126 29.0018 28.9667 28.9922C28.8027 28.9922 28.6683 28.9406 28.5765 28.8448C28.4912 28.7568 28.4453 28.6266 28.4453 28.4715C28.4453 28.1499 28.6437 27.9547 28.9716 27.9528C29.4437 27.9509 29.9143 27.9489 30.3848 27.9489C30.6832 27.9489 30.9832 27.9489 31.2832 27.9509H32.9308V25.3034C32.9292 24.6487 32.9276 23.971 32.9374 23.3067C32.9374 23.1115 32.9931 22.943 33.0915 22.8358C33.1849 22.7305 33.303 22.7095 33.385 22.7095H33.3882C33.6538 22.719 33.826 22.9507 33.8276 23.3029C33.8309 24.172 33.8342 25.0354 33.8342 25.8853Z" fill="white"/>
<path d="M26.3526 23.2091C26.351 23.3412 26.3002 23.4771 26.2116 23.5843C26.1231 23.6896 26.01 23.7528 25.9001 23.7566C25.7854 23.7642 25.669 23.7011 25.5821 23.6015C25.4919 23.4982 25.4395 23.3565 25.4395 23.2129C25.4395 22.9602 25.6575 22.7152 25.8936 22.7076C25.9985 22.7076 26.1215 22.7726 26.2116 22.876C26.3002 22.9775 26.351 23.1019 26.3526 23.2091Z" fill="white"/>
<path d="M11.3707 23.2263C11.3756 23.5077 11.1723 23.7489 10.9296 23.7566C10.8214 23.7604 10.7165 23.7106 10.6329 23.6149C10.5427 23.5135 10.4903 23.3756 10.4903 23.2359C10.487 22.9564 10.6903 22.7075 10.9313 22.7037C11.0493 22.7037 11.1575 22.763 11.2379 22.8588C11.3182 22.9545 11.369 23.0847 11.3707 23.2263Z" fill="white"/>
<path d="M8.36322 23.2857C8.35338 23.4254 8.296 23.5518 8.20255 23.6417C8.11238 23.7298 7.99926 23.77 7.8845 23.7585C7.68777 23.7374 7.4812 23.4714 7.4812 23.2397C7.4812 23.234 7.47956 23.2263 7.4812 23.2148C7.49923 22.9487 7.714 22.7056 7.9304 22.7056H7.95336C8.07468 22.7152 8.18288 22.7784 8.25993 22.8837C8.34027 22.9928 8.37633 23.1363 8.36322 23.2857Z" fill="white"/>
<path d="M20.354 23.2225V23.2263C20.3589 23.3488 20.313 23.479 20.2311 23.5843C20.1442 23.6896 20.0311 23.7528 19.9081 23.7566C19.672 23.7566 19.4654 23.5211 19.4572 23.2455C19.4491 22.989 19.6737 22.719 19.8933 22.7076H19.913C20.0163 22.7076 20.1163 22.7554 20.1999 22.8473C20.295 22.9468 20.3507 23.0847 20.354 23.2225Z" fill="white"/>
<path d="M23.3423 23.2206C23.344 23.3622 23.3013 23.4962 23.2194 23.5958C23.139 23.6953 23.0276 23.7508 22.9062 23.7528C22.7866 23.7604 22.6816 23.7068 22.5931 23.6073C22.5062 23.5077 22.4587 23.3756 22.457 23.2378C22.457 23.1057 22.5062 22.9717 22.5947 22.8703C22.68 22.7707 22.7915 22.7133 22.903 22.7133C23.0128 22.7133 23.1243 22.7707 23.2079 22.8683C23.2931 22.966 23.3407 23.0904 23.3423 23.2206Z" fill="white"/>
<path d="M14.5314 23.2321L14.3675 23.2359C14.3675 23.5077 14.1544 23.7585 13.915 23.7604C13.8133 23.7604 13.7035 23.703 13.6166 23.6015C13.5248 23.4962 13.4707 23.3622 13.4707 23.2321C13.4707 23.1095 13.5215 22.9775 13.6133 22.8703C13.7019 22.765 13.8133 22.7056 13.9199 22.7037C14.1494 22.7037 14.3675 22.9621 14.3675 23.234H14.5314V23.2321Z" fill="white"/>
</svg>
