<svg width="24" height="20" viewBox="0 0 24 20" fill="none" xmlns="http://www.w3.org/2000/svg">
<path d="M23.4218 19.1943L19.3671 12.7151L19.7098 12.3874C20.2309 11.8995 20.6663 11.3355 20.9947 10.718C21.3302 10.093 21.5658 9.41457 21.6943 8.69805C22.1297 6.37317 21.5444 4.3227 19.9097 2.43993C19.3671 1.81488 18.6818 1.32703 17.9323 1.03738C15.3553 0.0311986 13.1209 0.435194 11.0936 2.27223C10.2869 3.004 9.68728 3.95682 9.36605 5.0316C8.63078 7.4632 8.94488 9.59752 10.3369 11.5718C11.0222 12.5474 11.9502 13.2868 12.9996 13.7213C14.0489 14.1558 15.1197 14.3006 16.1691 14.1634C16.8258 14.0796 17.4826 13.8585 18.1107 13.5308L18.5176 13.3173L22.5438 19.7431C22.708 20.0099 23.0363 20.0785 23.2862 19.9032C23.5075 19.7431 23.5646 19.423 23.4218 19.1943ZM18.3891 12.1587C17.1685 13.0277 15.805 13.3097 14.3487 12.9972C12.8925 12.6847 11.7432 11.869 10.9294 10.558C10.1156 9.24688 9.84433 7.79859 10.137 6.24359C10.4297 4.68859 11.2007 3.46135 12.4285 2.59238C13.6492 1.72341 15.0126 1.43375 16.4689 1.74628C17.9251 2.0588 19.0744 2.88204 19.8882 4.1855C20.702 5.49658 20.9662 6.95249 20.6735 8.49987C20.3808 10.0472 19.617 11.2897 18.3891 12.1587ZM6.03236 2.80581H1.03539C0.74271 2.80581 0.5 3.06498 0.5 3.3775C0.5 3.69003 0.74271 3.9492 1.03539 3.9492H6.03236C6.33218 3.9492 6.56775 3.69765 6.56775 3.3775C6.56775 3.05736 6.33218 2.80581 6.03236 2.80581ZM6.03236 8.52273H1.03539C0.74271 8.52273 0.5 8.7819 0.5 9.09443C0.5 9.40695 0.74271 9.66612 1.03539 9.66612H6.03236C6.33218 9.66612 6.56775 9.41457 6.56775 9.09443C6.56775 8.77428 6.33218 8.52273 6.03236 8.52273ZM7.2816 14.1025H1.15674C0.799818 14.1025 0.5 14.3616 0.5 14.6741C0.5 14.9867 0.799818 15.2458 1.15674 15.2458H7.2816C7.64567 15.2458 7.93834 14.9943 7.93834 14.6741C7.93834 14.354 7.6528 14.1025 7.2816 14.1025ZM13.1709 18.8132H1.03539C0.74271 18.8132 0.5 19.0724 0.5 19.3849C0.5 19.6974 0.74271 19.9566 1.03539 19.9566H13.1709C13.4707 19.9566 13.7063 19.705 13.7063 19.3849C13.7063 19.0647 13.4707 18.8132 13.1709 18.8132Z" fill="black"/>
</svg>
