<svg width="46" height="59" viewBox="0 0 46 59" fill="none" xmlns="http://www.w3.org/2000/svg">
<g clip-path="url(#clip0_107_260)">
<path d="M24.2302 13.1631C24.5832 13.219 24.9281 13.2626 25.2689 13.332C26.1304 13.5064 27.0028 13.6494 27.848 13.8837C28.8213 14.1534 29.7987 14.4462 30.727 14.8399C31.8584 15.3207 32.9476 15.9064 34.0422 16.4703C34.4934 16.7018 34.9092 17.0028 35.3536 17.2507C35.4422 17.2998 35.6439 17.2957 35.6971 17.2344C36.1606 16.6937 36.6036 16.1352 37.0494 15.5808C37.0753 15.5481 37.0848 15.5018 37.0834 15.5073C36.9185 15.243 36.7508 15.0183 36.639 14.7704C36.5941 14.6696 36.6322 14.4953 36.6936 14.3876C37.3833 13.1822 38.0785 11.9781 38.7874 10.7836C39.1404 10.1883 39.6912 10.0807 40.5254 10.3654C41.7236 10.774 42.7406 11.4769 43.7111 12.2628C43.9838 12.4835 44.2632 12.6946 44.5263 12.9261C44.8766 13.234 44.9053 13.5622 44.6667 13.9518C43.9879 15.0605 43.309 16.1679 42.6492 17.2875C42.3507 17.7942 42.0004 18.1579 41.3488 18.0421C41.2711 18.0285 41.1511 18.0585 41.0993 18.1143C40.4491 18.8212 39.8084 19.535 39.1623 20.2514C39.6257 20.7595 40.0797 21.2294 40.5009 21.7266C40.9971 22.3095 41.4619 22.9184 41.9458 23.5122C42.8428 24.6114 43.5203 25.8441 44.1051 27.1245C44.8507 28.7549 45.3483 30.4643 45.6564 32.235C45.9726 34.0534 46.049 35.8813 45.9781 37.7174C45.9195 39.2416 45.8281 40.7671 45.4301 42.2491C44.9912 43.8795 44.5863 45.5222 44.0438 47.1185C43.444 48.8865 42.6192 50.5578 41.496 52.0711C40.5418 53.3555 39.409 54.4479 38.1044 55.3618C37.1257 56.047 36.0597 56.585 34.9596 57.0508C33.0526 57.8585 31.0623 58.3816 29.0176 58.6663C27.7757 58.8392 26.5175 58.936 25.2634 58.9795C24.0557 59.0204 22.8384 59.0095 21.6347 58.9101C20.2061 58.7916 18.7843 58.5736 17.3666 58.3584C16.2188 58.1841 15.0656 58.0084 13.9396 57.7305C12.6187 57.4036 11.321 56.9841 10.0246 56.5686C8.94499 56.2227 7.93352 55.716 6.99157 55.084C6.05917 54.4588 5.22355 53.7301 4.45745 52.9019C3.30694 51.6583 2.44815 50.235 1.76384 48.7081C1.02228 47.0531 0.532899 45.3151 0.256177 43.5172C-0.0232718 41.6933 -0.0273613 39.8613 0.0462496 38.0266C0.125313 36.0584 0.192108 34.0902 0.292982 32.1247C0.39522 30.1361 0.586063 28.1529 1.15041 26.2364C1.4803 25.1168 1.93151 24.0326 2.34727 22.9388C2.84074 21.6421 3.62728 20.5293 4.58014 19.5336C5.32988 18.7504 6.13823 18.0353 7.03383 17.4088C8.13799 16.6378 9.28578 15.9527 10.5058 15.3888C13.0399 14.2188 15.6722 13.392 18.4721 13.1699C18.6753 13.1536 18.8784 13.1087 19.0801 13.1182C19.3487 13.1304 19.4005 13.0051 19.4005 12.7709C19.4005 12.1906 19.4114 12.2056 18.8307 12.2519C17.751 12.3377 16.6714 12.3023 15.664 11.8692C14.9879 11.5777 14.4917 11.0478 14.26 10.3382C13.8169 8.97473 13.9178 7.60039 14.2436 6.22741C14.6076 4.69643 15.3328 3.36295 16.4465 2.25285C17.5697 1.13185 18.9329 0.437192 20.4978 0.219259C21.5365 0.0721537 22.593 -0.00548508 23.6426 -3.67429e-05C24.9499 0.00677367 26.1672 0.381347 27.1691 1.27351C27.9298 1.95047 28.4205 2.81267 28.7368 3.76476C29.1594 5.04376 29.3298 6.36634 29.2875 7.71344C29.2493 8.94477 28.9821 10.093 28.0034 10.9525C27.3859 11.4932 26.6293 11.7139 25.84 11.8337C25.4829 11.8882 25.1189 11.9114 24.7577 11.9141C24.4932 11.9168 24.4046 12.0176 24.3856 12.2737C24.3637 12.5638 24.2888 12.8499 24.2315 13.1631H24.2302ZM44.7744 36.5624C44.7567 33.7933 44.2959 30.9642 43.2068 28.2986C42.5879 26.7867 41.7605 25.3974 40.7981 24.0898C39.8916 22.8584 38.8883 21.7007 37.7105 20.7186C36.7495 19.9163 35.7639 19.1359 34.7429 18.4099C33.516 17.5381 32.1951 16.8094 30.7952 16.2592C29.5819 15.7824 28.3469 15.3357 27.0846 15.0197C25.8087 14.7009 24.496 14.453 23.186 14.3659C21.7451 14.2705 20.2892 14.3659 18.8416 14.4312C16.9604 14.5157 15.1488 14.972 13.378 15.5849C11.7967 16.1311 10.2809 16.8285 8.85775 17.7098C8.30294 18.053 7.75631 18.414 7.24103 18.8103C6.76665 19.1754 6.30318 19.5677 5.89968 20.0062C5.32715 20.6287 4.7219 21.2512 4.29932 21.9731C3.74588 22.9211 3.32739 23.9536 2.90344 24.971C2.34727 26.31 2.02284 27.7252 1.85926 29.154C1.67387 30.7694 1.62207 32.4012 1.53074 34.0275C1.4803 34.9211 1.49529 35.8173 1.43259 36.7095C1.299 38.5973 1.2063 40.4838 1.40669 42.3717C1.60844 44.2731 2.04465 46.1174 2.80529 47.8731C3.47597 49.4232 4.30887 50.8806 5.47982 52.1187C6.38633 53.0776 7.37599 53.9412 8.57693 54.5146C9.41937 54.9178 10.2659 55.3387 11.1547 55.6125C12.6064 56.0579 14.0841 56.4284 15.5672 56.7566C16.6332 56.9923 17.7306 57.0903 18.8075 57.281C20.4624 57.5739 22.1336 57.7441 23.8089 57.7128C25.4706 57.6815 27.1378 57.5739 28.7858 57.3709C31.4413 57.044 33.9863 56.3003 36.3187 54.9464C37.0003 54.5514 37.6846 54.1292 38.2694 53.6088C38.9932 52.9673 39.6571 52.244 40.2746 51.4976C41.2315 50.3398 41.9363 49.0186 42.4747 47.6225C42.8782 46.575 43.2313 45.5044 43.5394 44.4257C43.8734 43.2597 44.2155 42.0829 44.3955 40.8883C44.6095 39.4595 44.6558 38.0062 44.7758 36.5637L44.7744 36.5624ZM23.0047 1.21086C22.1295 1.31982 21.2475 1.38793 20.3819 1.54729C19.2832 1.75024 18.3277 2.27737 17.5029 3.03196C16.5964 3.86147 16.0048 4.89257 15.6259 6.04761C15.251 7.18495 15.191 8.35771 15.3628 9.53455C15.4609 10.202 15.8617 10.6406 16.546 10.8217C17.3734 11.0424 18.2036 11.0138 19.0406 10.9361C19.241 10.9184 19.4209 10.8776 19.3896 10.6297C19.3582 10.3927 19.5409 10.0903 19.1292 9.96088C18.4108 9.73613 17.751 9.13137 17.8996 8.17927C17.9923 7.58813 18.1027 6.99018 18.1 6.39631C18.0932 5.20176 18.3195 5.12412 19.4823 5.13229C20.6818 5.14047 21.8814 5.18541 23.081 5.20448C23.4422 5.20993 23.8062 5.14591 24.1647 5.17316C24.6609 5.21266 25.0617 5.44421 25.2948 5.91141C25.5851 6.49029 25.5974 7.11821 25.5715 7.73524C25.5388 8.5198 25.3234 9.23489 24.511 9.60401C24.4264 9.64215 24.3801 9.81786 24.3651 9.93636C24.3487 10.0671 24.4005 10.2047 24.4019 10.3395C24.4046 10.552 24.4946 10.6637 24.7127 10.6365C25.2607 10.5684 25.821 10.5398 26.354 10.409C26.8393 10.2891 27.2509 9.99629 27.5372 9.56043C27.9134 8.98699 27.9993 8.33864 28.0088 7.68211C28.032 6.11572 27.8603 4.58337 27.0655 3.18996C26.6648 2.48849 26.1209 1.94229 25.3452 1.62765C24.59 1.32118 23.8089 1.28032 23.0074 1.21222L23.0047 1.21086ZM43.3376 13.6249C42.3343 12.8226 41.3801 12.0163 40.1533 11.6213C39.9243 11.5477 39.8288 11.5831 39.7212 11.767C39.2141 12.6333 38.6961 13.4928 38.1985 14.3645C38.1562 14.438 38.2026 14.6301 38.2735 14.69C39.1773 15.4637 40.1587 16.1216 41.2356 16.6364C41.4347 16.7318 41.5246 16.6691 41.616 16.5139C42.1803 15.5645 42.746 14.6151 43.3363 13.6235L43.3376 13.6249ZM20.765 8.84669C20.7664 8.86032 20.7691 8.87257 20.7704 8.8862C21.6483 8.80447 22.5303 8.74862 23.4027 8.62876C23.7449 8.58245 24.1797 8.48302 24.2383 8.05532C24.2969 7.62491 24.2383 7.17678 24.2179 6.73683C24.207 6.51072 24.0679 6.44398 23.8457 6.45896C23.4163 6.48757 22.9842 6.50664 22.5548 6.49846C21.6142 6.48076 20.675 6.4467 19.7344 6.41538C19.5272 6.40857 19.3786 6.4576 19.3555 6.69733C19.3091 7.18087 19.2519 7.66304 19.2083 8.14795C19.1701 8.56883 19.286 8.72819 19.7154 8.7854C20.0616 8.83171 20.4147 8.82899 20.765 8.84806V8.84669ZM23.0306 13.0365C23.0551 12.6142 23.0878 12.2328 23.0974 11.8501C23.1096 11.3448 23.1028 10.8394 23.1083 10.3341C23.111 10.0726 22.9665 10.0181 22.7361 10.0317C22.1595 10.0671 21.5829 10.0984 21.0063 10.1121C20.7786 10.1175 20.6764 10.187 20.6764 10.4253C20.6764 11.184 20.6723 11.9427 20.6546 12.7014C20.6491 12.9425 20.735 13.016 20.9695 13.0106C21.467 12.997 21.9659 13.0051 22.4635 13.0092C22.6502 13.0106 22.837 13.0269 23.0306 13.0365ZM39.9215 17.4605C39.8779 17.4074 39.852 17.3529 39.8098 17.3257C39.3163 17.0083 38.8256 16.6868 38.3198 16.3872C38.2503 16.3463 38.069 16.3858 38.0131 16.4512C37.6028 16.9307 37.2157 17.4292 36.8108 17.9127C36.6677 18.0843 36.684 18.196 36.8571 18.3322C37.2129 18.6101 37.5578 18.9002 37.9041 19.1904C38.1044 19.3593 38.2598 19.3511 38.4411 19.14C38.8801 18.6251 39.3422 18.1293 39.7934 17.6253C39.837 17.5763 39.8738 17.5218 39.9229 17.4605H39.9215Z" fill="black"/>
<path d="M41.0677 38.8888C41.1263 40.255 40.9682 41.6048 40.6847 42.9356C40.2989 44.739 39.6732 46.4538 38.7299 48.057C37.8097 49.6193 36.662 50.9719 35.2334 52.0738C34.2587 52.8257 33.1641 53.3828 32.0204 53.8486C30.6477 54.407 29.2204 54.7339 27.7578 54.9165C26.2256 55.1072 24.6866 55.1262 23.1462 54.99C22.346 54.9192 21.5363 54.9314 20.7402 54.8266C19.2871 54.6345 17.8312 54.4329 16.3944 54.1428C15.3053 53.9221 14.2202 53.6252 13.1801 53.2397C12.1468 52.857 11.1544 52.3503 10.177 51.8382C9.46954 51.4677 8.7607 51.0618 8.14727 50.5578C7.51613 50.0402 6.93814 49.43 6.44468 48.7789C5.64859 47.7287 5.16058 46.5097 4.76935 45.2525C4.35767 43.9299 4.11367 42.576 3.93782 41.2071C3.63111 38.8248 3.44163 36.4344 3.4648 34.0303C3.48116 32.3644 3.63656 30.7109 4.00734 29.0846C4.34949 27.5808 4.90839 26.1683 5.71948 24.8458C6.68051 23.2766 7.92235 21.9772 9.39048 20.8984C10.7386 19.9082 12.2313 19.1645 13.7921 18.5516C15.0912 18.0408 16.4176 17.6253 17.7889 17.3679C19.9659 16.9607 22.1456 16.9211 24.3417 17.2944C26.6168 17.6798 28.7583 18.4371 30.7663 19.5363C32.0204 20.2228 33.1913 21.0673 34.3746 21.8764C35.4924 22.6405 36.4684 23.5695 37.2781 24.6578C37.8738 25.4573 38.3632 26.3236 38.704 27.2607C39.1007 28.3531 39.5042 29.4496 39.8013 30.5719C40.1857 32.0226 40.532 33.4909 40.776 34.9715C40.9886 36.2627 41.0377 37.5799 41.1604 38.8847C41.1304 38.8875 41.1004 38.8902 41.0691 38.8916L41.0677 38.8888ZM24.7602 53.835C25.863 53.756 26.8049 53.7287 27.736 53.6143C29.9034 53.3501 31.9427 52.6976 33.7911 51.499C35.093 50.6559 36.1712 49.5853 37.0491 48.3213C38.1751 46.699 38.9289 44.9052 39.3569 42.9792C39.7141 41.3719 39.8504 39.7456 39.7904 38.0975C39.7264 36.3268 39.4892 34.5806 39.0843 32.8602C38.6876 31.1781 38.2269 29.515 37.5766 27.9064C37.015 26.517 36.2748 25.253 35.1843 24.2165C33.6494 22.7563 31.9141 21.5699 30.0452 20.5852C28.6275 19.8374 27.1321 19.2748 25.574 18.8717C24.3199 18.5475 23.0508 18.3595 21.7612 18.3173C20.2236 18.2655 18.7063 18.444 17.2137 18.8022C15.7483 19.1536 14.332 19.6494 12.9701 20.2991C11.6097 20.9475 10.342 21.7239 9.19555 22.7182C8.07502 23.6907 7.17261 24.824 6.45422 26.0975C5.85034 27.1695 5.46865 28.3449 5.21919 29.5504C4.92475 30.9697 4.73391 32.4094 4.75708 33.8587C4.78298 35.4646 4.87022 37.0704 4.97791 38.6736C5.13195 40.9687 5.41822 43.2461 6.1884 45.4323C6.6696 46.7998 7.33483 48.057 8.38583 49.0881C8.97471 49.6656 9.66856 50.0824 10.372 50.4951C11.6138 51.2239 12.9088 51.8681 14.2815 52.2699C15.8587 52.7303 17.474 53.1117 19.0989 53.3419C21.0237 53.6143 22.9771 53.6879 24.7615 53.835H24.7602Z" fill="black"/>
<path d="M21.862 32.0403C20.0681 32.0457 18.5209 30.892 18.0465 29.1949C17.6253 27.6884 18.1283 26.1561 19.3784 25.2489C20.5766 24.3786 21.9166 24.1974 23.3411 24.5175C24.482 24.7736 25.499 25.2598 26.2542 26.1806C26.8976 26.9624 27.0312 27.8737 26.674 28.7958C25.9624 30.6346 23.84 32.0348 21.862 32.0403ZM23.0316 25.8074C22.2587 25.554 21.5812 25.6507 20.9215 25.8837C20.0449 26.1915 19.4097 26.7772 19.2352 27.7075C19.0648 28.6174 19.3293 29.4441 20.0313 30.0734C20.7838 30.749 21.6916 30.8525 22.6431 30.6387C23.5292 30.4385 24.2571 29.9536 24.8746 29.2984C25.2659 28.8843 25.5671 28.4076 25.5535 27.826C25.5344 27.0237 24.9796 26.6015 24.313 26.2446C23.8114 26.9229 23.3233 27.5876 22.8299 28.2469C22.6949 28.428 22.5559 28.6105 22.3909 28.7631C22.151 28.9838 21.7693 28.9511 21.5294 28.7195C21.3004 28.4989 21.2786 28.206 21.479 27.9227C21.6358 27.7007 21.8048 27.4882 21.9656 27.2689C22.3105 26.7976 22.6554 26.3263 23.033 25.8087L23.0316 25.8074Z" fill="black"/>
<path d="M21.4842 37.08C21.0807 36.9833 20.9921 37.3633 20.834 37.5635C20.3201 38.2173 19.8498 38.9066 19.3768 39.5917C18.8356 40.3749 18.3149 41.1744 17.7723 41.9576C17.2353 42.7354 16.6941 43.5104 16.1311 44.2691C15.7562 44.7758 15.3405 45.2525 14.9438 45.7442C14.6916 46.0561 14.2513 46.1665 13.9868 45.9839C13.7033 45.7878 13.6433 45.3737 13.9064 45.0114C14.2772 44.5006 14.7039 44.0307 15.0774 43.5213C15.6281 42.7681 16.1515 41.9971 16.6859 41.233C17.1753 40.5315 17.6592 39.8273 18.1513 39.1286C18.6734 38.3849 19.19 37.6357 19.7339 36.907C19.9807 36.5774 20.072 36.2995 19.9943 35.846C19.843 34.9524 20.6786 34.2006 21.5579 34.3844C21.6764 34.409 21.8496 34.3586 21.9423 34.2796C22.2081 34.0507 22.4398 33.7851 22.6947 33.5427C23.0014 33.2512 23.3082 33.2035 23.5753 33.3915C23.9857 33.6816 23.9843 34.1202 23.5685 34.5016C23.469 34.5928 23.3722 34.6882 23.2686 34.7754C23.0055 34.9974 22.8706 35.2167 22.951 35.6158C23.1228 36.4739 22.3171 37.0786 21.4842 37.0814V37.08Z" fill="black"/>
<path d="M12.2666 31.219C12.2707 31.5963 11.8563 31.8782 11.4297 31.776C11.1666 31.7134 10.9103 31.614 10.6445 31.5636C9.93427 31.4301 9.2227 31.3102 8.5084 31.1944C7.96995 31.1073 7.74912 30.9302 7.7423 30.5474C7.73548 30.1252 8.03947 29.8133 8.45251 29.8855C9.52941 30.0748 10.6049 30.2805 11.675 30.5052C12.1072 30.5965 12.2612 30.8226 12.2653 31.2162L12.2666 31.219Z" fill="black"/>
<path d="M13.7381 44.0293C13.614 44.2623 13.5622 44.4638 13.4341 44.5851C12.7293 45.2525 12.0218 45.9185 11.2816 46.5451C10.8427 46.9183 10.2606 46.7004 10.2143 46.1637C10.1993 45.9839 10.307 45.7388 10.4419 45.6094C10.9545 45.1176 11.5038 44.6654 12.0314 44.1901C12.2236 44.0171 12.364 43.7637 12.5821 43.6493C12.7893 43.5403 13.0851 43.4968 13.3059 43.5567C13.4736 43.6016 13.5868 43.8536 13.7381 44.0293Z" fill="black"/>
<path d="M22.2517 46.6118C22.6988 46.6036 23.0137 46.9932 22.9074 47.4304C22.7166 48.2095 22.6784 48.9887 22.8665 49.7746C22.9292 50.0361 23.0001 50.3044 22.7779 50.5428C22.602 50.7321 22.3894 50.8629 22.1495 50.7444C21.9655 50.6545 21.7324 50.4951 21.6874 50.3235C21.4502 49.4109 21.3738 48.4806 21.5824 47.5462C21.6124 47.4141 21.6192 47.2779 21.6465 47.1444C21.7119 46.8189 21.9436 46.6173 22.2517 46.6118Z" fill="black"/>
<path d="M28.4818 50.314C28.4791 50.7144 28.231 51.0005 27.8983 51.025C27.5494 51.0509 27.2727 50.8275 27.1977 50.4243C27.0804 49.8032 26.9809 49.178 26.8746 48.5555C26.8228 48.2545 26.7615 47.9562 26.7192 47.6538C26.6647 47.2507 26.8842 46.9387 27.2468 46.8788C27.6134 46.8189 27.9283 47.045 28.0006 47.4454C28.1628 48.3458 28.3141 49.2488 28.4682 50.1505C28.4791 50.2173 28.4804 50.2854 28.4818 50.314Z" fill="black"/>
<path d="M8.44989 34.7535C9.11239 34.7535 9.75444 34.7535 10.3979 34.7535C10.8218 34.7535 11.1067 35.0042 11.1217 35.3869C11.1353 35.7479 10.8777 36.0189 10.4551 36.0353C9.91529 36.0557 9.37412 36.038 8.83294 36.0462C8.43762 36.0516 8.04367 36.0639 7.64971 36.0829C7.29801 36.1006 6.95177 35.8432 6.90951 35.519C6.86317 35.1622 7.13035 34.8434 7.52566 34.808C7.84055 34.7794 8.15681 34.7712 8.45125 34.7549L8.44989 34.7535Z" fill="black"/>
<path d="M35.2182 33.4896C35.683 33.4896 36.1479 33.4773 36.6114 33.4936C36.9126 33.5045 37.1648 33.6312 37.2589 33.9472C37.3434 34.2292 37.2507 34.4743 37.0067 34.6228C36.8704 34.7059 36.6891 34.7481 36.5268 34.7495C35.6094 34.7617 34.6907 34.7604 33.7732 34.7536C33.3916 34.7509 33.108 34.4703 33.1094 34.127C33.1107 33.7443 33.3329 33.5086 33.7555 33.4936C34.2422 33.4759 34.7302 33.4896 35.2168 33.4896H35.2182Z" fill="black"/>
<path d="M10.9493 39.8477C11.252 39.8559 11.4373 40.0084 11.5505 40.2536C11.6595 40.4906 11.65 40.7494 11.4278 40.8992C10.8975 41.2561 10.3591 41.6034 9.79746 41.9086C9.4962 42.072 9.14041 42.1374 8.81053 42.2463C8.41112 42.3785 8.09896 42.2368 7.96809 41.8622C7.84268 41.5013 7.99944 41.1567 8.3934 41.0409C9.18267 40.8093 9.91605 40.4743 10.5799 39.988C10.6822 39.9131 10.8253 39.894 10.9507 39.8477H10.9493Z" fill="black"/>
<path d="M31.8946 44.0552C32.0487 44.1383 32.2286 44.1928 32.3526 44.3086C32.8761 44.7921 33.3914 45.2852 33.8917 45.7919C34.0852 45.988 34.272 46.206 34.2106 46.5356C34.122 47.0014 33.5809 47.2384 33.2292 46.9183C32.6266 46.3708 32.0487 45.796 31.4748 45.2171C31.2757 45.0155 31.179 44.7472 31.3098 44.4679C31.4148 44.2432 31.5893 44.0825 31.8946 44.0566V44.0552Z" fill="black"/>
<path d="M18.2625 47.0967C18.2162 47.1825 18.133 47.3651 18.0267 47.5312C17.6559 48.1074 17.277 48.6781 16.8994 49.2488C16.6908 49.5648 16.3187 49.6697 16.0215 49.5008C15.7161 49.3278 15.6016 48.9464 15.8061 48.6141C16.2246 47.9344 16.6595 47.2656 17.1134 46.6091C17.2852 46.3599 17.5701 46.2645 17.8699 46.368C18.148 46.4647 18.2598 46.6949 18.2639 47.0967H18.2625Z" fill="black"/>
<path d="M32.569 24.7899C32.4749 24.9425 32.3154 25.2217 32.1341 25.4859C31.8124 25.9572 31.4907 26.4298 31.1458 26.8834C30.8855 27.2267 30.5678 27.2893 30.2966 27.1C29.9803 26.8793 29.8726 26.4857 30.0989 26.1493C30.5351 25.4968 30.9932 24.8566 31.4689 24.2328C31.6243 24.0285 31.8656 23.8855 32.1559 24.0081C32.4286 24.1238 32.599 24.3159 32.569 24.7899Z" fill="black"/>
<path d="M26.3297 24.0993C25.8281 24.1007 25.4954 23.7003 25.6358 23.2944C25.8921 22.5507 26.1729 21.8138 26.4756 21.0878C26.6364 20.7037 27.0099 20.5688 27.3384 20.7091C27.6288 20.8331 27.7869 21.2199 27.6561 21.5809C27.3943 22.3 27.1108 23.0097 26.8368 23.7248C26.7332 23.9958 26.5192 24.0871 26.3283 24.1007L26.3297 24.0993Z" fill="black"/>
<path d="M35.6874 41.3297C35.5088 41.2561 35.2225 41.1744 34.9758 41.0259C34.4823 40.729 34.0039 40.4048 33.5336 40.0725C33.2037 39.8382 33.1369 39.4023 33.355 39.1109C33.5731 38.818 33.9643 38.8207 34.3228 39.0564C34.8681 39.4119 35.4297 39.7429 35.9968 40.0629C36.3417 40.2577 36.5244 40.5342 36.4507 40.8502C36.3826 41.1404 36.1236 41.3297 35.686 41.3297H35.6874Z" fill="black"/>
<path d="M32.9498 30.7518C32.5763 30.7586 32.3296 30.5842 32.2464 30.2791C32.1523 29.9332 32.3268 29.6784 32.6008 29.5477C33.3206 29.2017 34.0553 28.8844 34.7969 28.5861C35.0831 28.4716 35.3299 28.6365 35.4921 28.8748C35.6693 29.1323 35.638 29.4605 35.3858 29.6294C35.09 29.8283 34.756 29.9713 34.4329 30.1252C34.0267 30.32 33.615 30.5052 33.2033 30.6878C33.112 30.7286 33.0071 30.7368 32.9498 30.7504V30.7518Z" fill="black"/>
<path d="M13.1488 26.7077C13.1515 27.1981 12.6472 27.5427 12.2968 27.3683C12.0365 27.2389 11.7993 27.0592 11.5648 26.8862C11.1559 26.5852 10.7428 26.2869 10.3543 25.9586C10.0531 25.7039 10.0244 25.3879 10.2194 25.1127C10.4034 24.8539 10.7878 24.7804 11.1082 24.9847C11.5171 25.2462 11.9056 25.5418 12.2996 25.8265C12.5013 25.9722 12.7181 26.1057 12.8885 26.2814C13.022 26.419 13.0957 26.6151 13.1502 26.7077H13.1488Z" fill="black"/>
<path d="M16.985 23.8365C16.9428 24.1566 16.846 24.3827 16.5311 24.478C16.2271 24.5693 15.9913 24.4903 15.8263 24.2383C15.4787 23.7098 15.142 23.1759 14.8108 22.6365C14.5872 22.2714 14.6472 21.9187 14.9471 21.7157C15.2225 21.5291 15.6205 21.5986 15.8454 21.9227C16.1998 22.4308 16.5256 22.9593 16.8542 23.485C16.9237 23.5967 16.9482 23.7357 16.985 23.8378V23.8365Z" fill="black"/>
<path d="M20.4283 21.175C20.4638 20.6683 20.4951 20.1616 20.536 19.6549C20.566 19.2735 20.8454 19.016 21.1999 19.0269C21.5161 19.0365 21.8078 19.3321 21.801 19.6862C21.7901 20.3073 21.7697 20.9284 21.7165 21.5468C21.6797 21.9677 21.3703 22.2006 20.9722 22.1693C20.6328 22.1434 20.412 21.856 20.4201 21.446C20.4215 21.3561 20.431 21.2662 20.4365 21.175C20.4338 21.175 20.4297 21.175 20.427 21.175H20.4283Z" fill="black"/>
</g>
<defs>
<clipPath id="clip0_107_260">
<rect width="46" height="59" fill="white"/>
</clipPath>
</defs>
</svg>
